G04 Layer: TopSolderMaskLayer*
G04 EasyEDA v6.4.7, 2020-09-27T20:21:07--7:00*
G04 b775d1b0149e4be3966f09abf6165722,d038363d4a56431e906f153f78f79391,10*
G04 Gerber Generator version 0.2*
G04 Scale: 100 percent, Rotated: No, Reflected: No *
G04 Dimensions in millimeters *
G04 leading zeros omitted , absolute positions ,3 integer and 3 decimal *
%FSLAX33Y33*%
%MOMM*%
G90*
D02*

%ADD24C,1.778000*%
%ADD30C,1.703197*%

%LPD*%
G54D24*
G01X24539Y101798D03*
G01X21999Y101798D03*
G01X24539Y104338D03*
G01X21999Y104338D03*
G01X24539Y106878D03*
G36*
G01X21109Y105987D02*
G01X21109Y107765D01*
G01X22887Y107765D01*
G01X22887Y105987D01*
G01X21109Y105987D01*
G37*
G36*
G01X17813Y106899D02*
G01X17813Y108855D01*
G01X19133Y108855D01*
G01X19133Y106899D01*
G01X17813Y106899D01*
G37*
G36*
G01X14866Y106899D02*
G01X14866Y108855D01*
G01X16187Y108855D01*
G01X16187Y106899D01*
G01X14866Y106899D01*
G37*
G36*
G01X5770Y105731D02*
G01X5770Y106544D01*
G01X8183Y106544D01*
G01X8183Y105731D01*
G01X5770Y105731D01*
G37*
G36*
G01X5770Y104461D02*
G01X5770Y105274D01*
G01X8183Y105274D01*
G01X8183Y104461D01*
G01X5770Y104461D01*
G37*
G36*
G01X5770Y103191D02*
G01X5770Y104004D01*
G01X8183Y104004D01*
G01X8183Y103191D01*
G01X5770Y103191D01*
G37*
G36*
G01X5770Y101921D02*
G01X5770Y102734D01*
G01X8183Y102734D01*
G01X8183Y101921D01*
G01X5770Y101921D01*
G37*
G36*
G01X11003Y101921D02*
G01X11003Y102734D01*
G01X13416Y102734D01*
G01X13416Y101921D01*
G01X11003Y101921D01*
G37*
G36*
G01X11003Y103191D02*
G01X11003Y104004D01*
G01X13416Y104004D01*
G01X13416Y103191D01*
G01X11003Y103191D01*
G37*
G36*
G01X11003Y104461D02*
G01X11003Y105274D01*
G01X13416Y105274D01*
G01X13416Y104461D01*
G01X11003Y104461D01*
G37*
G36*
G01X11003Y105731D02*
G01X11003Y106544D01*
G01X13416Y106544D01*
G01X13416Y105731D01*
G01X11003Y105731D01*
G37*
G36*
G01X1315Y104598D02*
G01X1315Y105901D01*
G01X2519Y105901D01*
G01X2519Y104598D01*
G01X1315Y104598D01*
G37*
G36*
G01X1315Y102922D02*
G01X1315Y104225D01*
G01X2519Y104225D01*
G01X2519Y102922D01*
G01X1315Y102922D01*
G37*
G36*
G01X17386Y100864D02*
G01X17386Y101893D01*
G01X18643Y101893D01*
G01X18643Y100864D01*
G01X17386Y100864D01*
G37*
G36*
G01X15354Y100204D02*
G01X15354Y101233D01*
G01X16611Y101233D01*
G01X16611Y100204D01*
G01X15354Y100204D01*
G37*
G36*
G01X15354Y101525D02*
G01X15354Y102553D01*
G01X16611Y102553D01*
G01X16611Y101525D01*
G01X15354Y101525D01*
G37*
G54D30*
G01X1872Y108378D03*
G01X1872Y100878D03*
G01X27872Y107878D03*
G01X27872Y101128D03*
M00*
M02*
