G04 Layer: BoardOutline*
G04 EasyEDA v6.4.7, 2020-09-27T20:21:07--7:00*
G04 b775d1b0149e4be3966f09abf6165722,d038363d4a56431e906f153f78f79391,10*
G04 Gerber Generator version 0.2*
G04 Scale: 100 percent, Rotated: No, Reflected: No *
G04 Dimensions in millimeters *
G04 leading zeros omitted , absolute positions ,3 integer and 3 decimal *
%FSLAX33Y33*%
%MOMM*%
G90*
D02*

%ADD10C,0.254000*%
G54D10*
G01X0Y110128D02*
G01X29751Y110128D01*
G01X29750Y99128D01*
G01X0Y99128D01*
G01X0Y110128D01*
G01X31751Y110128D02*
G01X61502Y110128D01*
G01X61501Y99128D01*
G01X31751Y99128D01*
G01X31751Y110128D01*
G01X63502Y110128D02*
G01X93253Y110128D01*
G01X93252Y99128D01*
G01X63502Y99128D01*
G01X63502Y110128D01*
G01X0Y97128D02*
G01X29751Y97128D01*
G01X29750Y86128D01*
G01X0Y86128D01*
G01X0Y97128D01*
G01X31751Y97128D02*
G01X61502Y97128D01*
G01X61501Y86128D01*
G01X31751Y86128D01*
G01X31751Y97128D01*
G01X63502Y97128D02*
G01X93253Y97128D01*
G01X93252Y86128D01*
G01X63502Y86128D01*
G01X63502Y97128D01*
G01X0Y84128D02*
G01X29751Y84128D01*
G01X29750Y73128D01*
G01X0Y73128D01*
G01X0Y84128D01*
G01X31751Y84128D02*
G01X61502Y84128D01*
G01X61501Y73128D01*
G01X31751Y73128D01*
G01X31751Y84128D01*
G01X63502Y84128D02*
G01X93253Y84128D01*
G01X93252Y73128D01*
G01X63502Y73128D01*
G01X63502Y84128D01*
G01X0Y71128D02*
G01X29751Y71128D01*
G01X29750Y60128D01*
G01X0Y60128D01*
G01X0Y71128D01*
G01X31751Y71128D02*
G01X61502Y71128D01*
G01X61501Y60128D01*
G01X31751Y60128D01*
G01X31751Y71128D01*
G01X63502Y71128D02*
G01X93253Y71128D01*
G01X93252Y60128D01*
G01X63502Y60128D01*
G01X63502Y71128D01*
G01X0Y58128D02*
G01X29751Y58128D01*
G01X29750Y47128D01*
G01X0Y47128D01*
G01X0Y58128D01*
G01X31751Y58128D02*
G01X61502Y58128D01*
G01X61501Y47128D01*
G01X31751Y47128D01*
G01X31751Y58128D01*
G01X63502Y58128D02*
G01X93253Y58128D01*
G01X93252Y47128D01*
G01X63502Y47128D01*
G01X63502Y58128D01*
G01X0Y45128D02*
G01X29751Y45128D01*
G01X29750Y34128D01*
G01X0Y34128D01*
G01X0Y45128D01*
G01X31751Y45128D02*
G01X61502Y45128D01*
G01X61501Y34128D01*
G01X31751Y34128D01*
G01X31751Y45128D01*
G01X63502Y45128D02*
G01X93253Y45128D01*
G01X93252Y34128D01*
G01X63502Y34128D01*
G01X63502Y45128D01*
G01X0Y32128D02*
G01X29751Y32128D01*
G01X29750Y21128D01*
G01X0Y21128D01*
G01X0Y32128D01*
G01X31751Y32128D02*
G01X61502Y32128D01*
G01X61501Y21128D01*
G01X31751Y21128D01*
G01X31751Y32128D01*
G01X63502Y32128D02*
G01X93253Y32128D01*
G01X93252Y21128D01*
G01X63502Y21128D01*
G01X63502Y32128D01*
G01X0Y19128D02*
G01X29751Y19128D01*
G01X29750Y8128D01*
G01X0Y8128D01*
G01X0Y19128D01*
G01X31751Y19128D02*
G01X61502Y19128D01*
G01X61501Y8128D01*
G01X31751Y8128D01*
G01X31751Y19128D01*
G01X63502Y19128D02*
G01X93253Y19128D01*
G01X93252Y8128D01*
G01X63502Y8128D01*
G01X63502Y19128D01*
G01X0Y110128D02*
G01X93252Y110128D01*
G01X93252Y8128D01*
G01X0Y8128D01*
G01X0Y110128D01*
G01X0Y97128D02*
G01X93252Y97128D01*
G01X0Y99128D02*
G01X93252Y99128D01*
G01X0Y84128D02*
G01X93252Y84128D01*
G01X0Y86128D02*
G01X93252Y86128D01*
G01X0Y71128D02*
G01X93252Y71128D01*
G01X0Y73128D02*
G01X93252Y73128D01*
G01X0Y58128D02*
G01X93252Y58128D01*
G01X0Y60128D02*
G01X93252Y60128D01*
G01X0Y45128D02*
G01X93252Y45128D01*
G01X0Y47128D02*
G01X93252Y47128D01*
G01X0Y32128D02*
G01X93252Y32128D01*
G01X0Y34128D02*
G01X93252Y34128D01*
G01X0Y19128D02*
G01X93252Y19128D01*
G01X0Y21128D02*
G01X93252Y21128D01*
G01X31750Y110128D02*
G01X31750Y8128D01*
G01X29750Y110128D02*
G01X29750Y8128D01*
G01X63501Y110128D02*
G01X63501Y8128D01*
G01X61501Y110128D02*
G01X61501Y8128D01*

%LPD*%
M00*
M02*
